<svg width="72" height="72" viewBox="0 0 72 72" fill="none" xmlns="http://www.w3.org/2000/svg">
<circle cx="35.6" cy="36.2523" r="34" fill="#0F4E32" stroke="#47E49F" stroke-width="3.2"/>
<g clip-path="url(#clip0_11396_4941)">
<path d="M38.1541 53.8449L31.0571 47.2628L28.9371 49.0799L18.2688 51.051L27.6277 40.4246L38.1541 53.8449Z" fill="#47E49F"/>
<path d="M46.4511 19.0527H53.1655L54.6798 23.9428L42.5128 37.0328L62.2512 55.0122H46.4511L30.6154 37.0328L46.4511 19.0527Z" fill="#47E49F"/>
<path d="M27.6276 33.6401L18.2687 23.0136L23.9411 24.2587L29.6135 25.5038L31.533 27.2189L38.154 20.2197L27.6276 33.6401Z" fill="#47E49F"/>
<path d="M14.3998 23.5588L24.9682 37.0334L14.3998 50.5072L21.6684 37.0334L14.3998 23.5588Z" fill="#47E49F"/>
</g>
<defs>
<clipPath id="clip0_11396_4941">
<rect width="42.4" height="35.9595" fill="white" transform="matrix(-1 0 0 1 56.7998 19.0527)"/>
</clipPath>
</defs>
</svg>
