<svg width="16" height="16" viewBox="0 0 16 16" fill="none" xmlns="http://www.w3.org/2000/svg">
<path d="M7.98975 8.19629C4.52246 8.19629 1.90771 6.74902 1.90771 4.83008C1.90771 2.91113 4.52246 1.46387 7.98975 1.46387C11.457 1.46387 14.0718 2.91113 14.0718 4.83008C14.0732 6.74902 11.457 8.19629 7.98975 8.19629ZM7.98975 2.77344C5.25781 2.77344 3.21729 3.85889 3.21729 4.83008C3.21729 5.80127 5.25781 6.88672 7.98975 6.88672C10.7217 6.88672 12.7622 5.80127 12.7622 4.83008C12.7637 3.85889 10.7217 2.77344 7.98975 2.77344Z" fill="#134631"/>
<path d="M7.98975 11.3765C4.52246 11.3765 1.90771 9.9292 1.90771 8.01025V4.83008C1.90771 4.46826 2.20068 4.17529 2.5625 4.17529C2.92432 4.17529 3.21729 4.46826 3.21729 4.83008V8.01172C3.21729 8.98291 5.25781 10.0684 7.98975 10.0684C10.7217 10.0684 12.7637 8.98145 12.7637 8.01172V4.83008C12.7637 4.46826 13.0566 4.17529 13.4185 4.17529C13.7803 4.17529 14.0732 4.46826 14.0732 4.83008V8.01172C14.0732 9.93066 11.457 11.3765 7.98975 11.3765Z" fill="#134631"/>
<path d="M7.98975 14.5581C4.52246 14.5581 1.90771 13.1123 1.90771 11.1934V8.01172C1.90771 7.6499 2.20068 7.35693 2.5625 7.35693C2.92432 7.35693 3.21729 7.6499 3.21729 8.01172V11.1934C3.21729 12.1646 5.25781 13.25 7.98975 13.25C10.7217 13.25 12.7637 12.1631 12.7637 11.1934V8.01172C12.7637 7.6499 13.0566 7.35693 13.4185 7.35693C13.7803 7.35693 14.0732 7.6499 14.0732 8.01172V11.1934C14.0732 13.1123 11.457 14.5581 7.98975 14.5581Z" fill="#134631"/>
</svg>
