<svg width="143" height="212" viewBox="0 0 143 212" fill="none" xmlns="http://www.w3.org/2000/svg">
<mask id="path-1-inside-1_10860_3290" fill="white">
<path fill-rule="evenodd" clip-rule="evenodd" d="M98.42 63.3848L122.452 58.3521L130.522 96.8858L130.394 96.9125C134.262 130.631 81.8623 169.135 10.8558 184.005C-60.1507 198.875 -123.597 184.631 -133.583 152.194L-133.71 152.221L-134.256 149.612C-134.267 149.564 -134.277 149.516 -134.287 149.468C-134.297 149.42 -134.307 149.372 -134.317 149.324L-141.78 113.687L-117.749 108.655C-97.1847 87.665 -59.8743 68.9524 -15.1978 59.5963C29.4786 50.2402 71.1622 52.4099 98.42 63.3848Z"/>
</mask>
<path fill-rule="evenodd" clip-rule="evenodd" d="M98.42 63.3848L122.452 58.3521L130.522 96.8858L130.394 96.9125C134.262 130.631 81.8623 169.135 10.8558 184.005C-60.1507 198.875 -123.597 184.631 -133.583 152.194L-133.71 152.221L-134.256 149.612C-134.267 149.564 -134.277 149.516 -134.287 149.468C-134.297 149.42 -134.307 149.372 -134.317 149.324L-141.78 113.687L-117.749 108.655C-97.1847 87.665 -59.8743 68.9524 -15.1978 59.5963C29.4786 50.2402 71.1622 52.4099 98.42 63.3848Z" fill="#0F4E32"/>
<path d="M98.42 63.3848L97.2996 66.1677L98.144 66.5077L99.035 66.3211L98.42 63.3848ZM122.452 58.3521L125.388 57.7372L124.773 54.8009L121.837 55.4158L122.452 58.3521ZM130.522 96.8858L131.136 99.8222L134.073 99.2072L133.458 96.2709L130.522 96.8858ZM130.394 96.9125L129.779 93.9762L127.102 94.5369L127.414 97.2544L130.394 96.9125ZM-133.583 152.194L-130.716 151.312L-131.521 148.698L-134.198 149.258L-133.583 152.194ZM-133.71 152.221L-136.646 152.836L-136.031 155.772L-133.095 155.157L-133.71 152.221ZM-134.256 149.612L-131.32 148.997L-131.321 148.99L-131.323 148.983L-134.256 149.612ZM-134.317 149.324L-131.377 148.724L-131.379 148.717L-131.38 148.709L-134.317 149.324ZM-141.78 113.687L-142.395 110.751L-145.331 111.366L-144.716 114.302L-141.78 113.687ZM-117.749 108.655L-117.134 111.591L-116.243 111.404L-115.606 110.754L-117.749 108.655ZM99.035 66.3211L123.067 61.2884L121.837 55.4158L97.8051 60.4485L99.035 66.3211ZM119.516 58.967L127.585 97.5008L133.458 96.2709L125.388 57.7372L119.516 58.967ZM129.907 93.9495L129.779 93.9762L131.009 99.8488L131.136 99.8222L129.907 93.9495ZM127.414 97.2544C129.154 112.426 118.209 129.563 96.9333 145.104C75.8519 160.504 45.4165 173.703 10.2409 181.069L11.4707 186.942C47.3017 179.438 78.5694 165.949 100.473 149.949C122.181 134.091 135.502 115.118 133.375 96.5706L127.414 97.2544ZM10.2409 181.069C-24.9347 188.436 -58.1085 188.558 -83.5975 182.911C-109.321 177.212 -126.223 165.906 -130.716 151.312L-136.45 153.077C-130.957 170.919 -111.143 182.954 -84.8952 188.769C-58.4128 194.636 -24.3602 194.445 11.4707 186.942L10.2409 181.069ZM-134.198 149.258L-134.325 149.285L-133.095 155.157L-132.968 155.131L-134.198 149.258ZM-130.774 151.606L-131.32 148.997L-137.193 150.227L-136.646 152.836L-130.774 151.606ZM-131.323 148.983C-131.332 148.94 -131.341 148.897 -131.35 148.854L-137.223 150.083C-137.212 150.136 -137.201 150.189 -137.19 150.241L-131.323 148.983ZM-131.35 148.854C-131.36 148.81 -131.368 148.767 -131.377 148.724L-137.256 149.925C-137.245 149.978 -137.234 150.031 -137.223 150.083L-131.35 148.854ZM-131.38 148.709L-138.843 113.072L-144.716 114.302L-137.253 149.939L-131.38 148.709ZM-141.165 116.624L-117.134 111.591L-118.363 105.718L-142.395 110.751L-141.165 116.624ZM-115.606 110.754C-95.5909 90.3249 -58.8989 71.8133 -14.5829 62.5326L-15.8127 56.66C-60.8496 66.0916 -98.7786 85.005 -119.891 106.555L-115.606 110.754ZM-14.5829 62.5326C29.7331 53.252 70.7695 55.4858 97.2996 66.1677L99.5405 60.6019C71.5549 49.3339 29.2241 47.2284 -15.8127 56.66L-14.5829 62.5326Z" fill="#47E49F" mask="url(#path-1-inside-1_10860_3290)"/>
<g filter="url(#filter0_i_10860_3290)">
<ellipse cx="-8.85557" cy="89.8719" rx="134.982" ry="63.5539" transform="rotate(-11.8279 -8.85557 89.8719)" fill="#0F4E32"/>
</g>
<path d="M115.919 63.7416C118.572 76.4074 110.263 92.4547 89.2579 108.307C68.7704 123.768 38.2831 137.27 2.63396 144.736C-33.0152 152.201 -66.3584 152.066 -91.328 146.125C-116.929 140.033 -130.978 128.668 -133.631 116.002C-136.283 103.336 -127.974 87.2891 -106.969 71.4372C-86.4816 55.976 -55.9942 42.4737 -20.3451 35.0081C15.304 27.5425 48.6473 27.6774 73.6169 33.619C99.2175 39.7107 113.267 51.0759 115.919 63.7416Z" stroke="#47E49F" stroke-width="15"/>
<g clip-path="url(#clip0_10860_3290)">
<path d="M0.204639 113L-23.731 108.013L-29.7279 112.03L-62.0917 121.802L-36.4116 100.281L0.204639 113Z" fill="#47E49F"/>
<path d="M15.2376 56.9987L35.9849 52.6538L42.1543 58.7903L8.54797 85.713L75.0186 99.1052L26.1966 109.329L-28.2148 93.4119L15.2376 56.9987Z" fill="#47E49F"/>
</g>
<line x1="21.8722" y1="141.474" x2="29.2502" y2="176.705" stroke="#47E49F" stroke-width="3"/>
<line x1="84.0615" y1="114.661" x2="91.4396" y2="149.892" stroke="#47E49F" stroke-width="3"/>
<line x1="95.251" y1="107.721" x2="102.629" y2="142.951" stroke="#47E49F" stroke-width="3"/>
<defs>
<filter id="filter0_i_10860_3290" x="-141.622" y="21.7749" width="267.5" height="138.817" filterUnits="userSpaceOnUse" color-interpolation-filters="sRGB">
<feFlood flood-opacity="0" result="BackgroundImageFix"/>
<feBlend mode="normal" in="SourceGraphic" in2="BackgroundImageFix" result="shape"/>
<feColorMatrix in="SourceAlpha" type="matrix" values="0 0 0 0 0 0 0 0 0 0 0 0 0 0 0 0 0 0 127 0" result="hardAlpha"/>
<feOffset dx="1.96721" dy="12.459"/>
<feGaussianBlur stdDeviation="1.31148"/>
<feComposite in2="hardAlpha" operator="arithmetic" k2="-1" k3="1"/>
<feColorMatrix type="matrix" values="0 0 0 0 0 0 0 0 0 0 0 0 0 0 0 0 0 0 1 0"/>
<feBlend mode="normal" in2="shape" result="effect1_innerShadow_10860_3290"/>
</filter>
<clipPath id="clip0_10860_3290">
<rect width="133.857" height="53.466" fill="white" transform="matrix(-0.978768 0.204973 0.204973 0.978768 47.2155 50.3018)"/>
</clipPath>
</defs>
</svg>
