<svg width="234" height="177" viewBox="0 0 234 177" fill="none" xmlns="http://www.w3.org/2000/svg">
<mask id="path-1-inside-1_10860_3358" fill="white">
<path fill-rule="evenodd" clip-rule="evenodd" d="M196.177 45.7927C196.207 45.8484 196.238 45.9042 196.268 45.9602C196.299 46.0162 196.329 46.0723 196.359 46.1284L210.503 72.1462L192.916 81.7065C181.776 102.915 157.025 126.268 124.331 144.041C91.6362 161.814 58.5784 169.886 34.722 167.703L17.1341 177.264L1.80438 149.064L1.89796 149.014C-9.02293 123.59 22.8737 81.2452 74.8377 52.9969C126.802 24.7486 179.683 21.0068 195.081 43.9968L195.173 43.9466L196.177 45.7927Z"/>
</mask>
<path fill-rule="evenodd" clip-rule="evenodd" d="M196.177 45.7927C196.207 45.8484 196.238 45.9042 196.268 45.9602C196.299 46.0162 196.329 46.0723 196.359 46.1284L210.503 72.1462L192.916 81.7065C181.776 102.915 157.025 126.268 124.331 144.041C91.6362 161.814 58.5784 169.886 34.722 167.703L17.1341 177.264L1.80438 149.064L1.89796 149.014C-9.02293 123.59 22.8737 81.2452 74.8377 52.9969C126.802 24.7486 179.683 21.0068 195.081 43.9968L195.173 43.9466L196.177 45.7927Z" fill="#0F4E32"/>
<path d="M196.177 45.7927L193.552 47.2457L193.546 47.2356L193.541 47.2255L196.177 45.7927ZM196.359 46.1284L193.723 47.5612L193.718 47.5511L193.712 47.541L196.359 46.1284ZM210.503 72.1462L213.138 70.7134L214.571 73.3491L211.936 74.7819L210.503 72.1462ZM192.916 81.7065L190.26 80.3114L190.683 79.5056L191.483 79.0708L192.916 81.7065ZM34.722 167.703L33.2892 165.067L34.089 164.632L34.9955 164.715L34.722 167.703ZM17.1341 177.264L18.5669 179.9L15.9312 181.333L14.4983 178.697L17.1341 177.264ZM1.80438 149.064L-0.831341 150.497L-2.26416 147.862L0.371567 146.429L1.80438 149.064ZM1.89796 149.014L4.65441 147.829L5.73403 150.343L3.33077 151.649L1.89796 149.014ZM195.081 43.9968L196.514 46.6325L194.11 47.9389L192.588 45.6662L195.081 43.9968ZM195.173 43.9466L193.74 41.3109L196.376 39.878L197.809 42.5138L195.173 43.9466ZM193.633 47.393C193.606 47.3438 193.579 47.2946 193.552 47.2457L198.801 44.3397C198.836 44.4021 198.87 44.4647 198.904 44.5274L193.633 47.393ZM193.712 47.541C193.686 47.4916 193.66 47.4423 193.633 47.393L198.904 44.5274C198.938 44.5901 198.972 44.6529 199.006 44.7159L193.712 47.541ZM207.867 73.579L193.723 47.5612L198.995 44.6956L213.138 70.7134L207.867 73.579ZM191.483 79.0708L209.07 69.5105L211.936 74.7819L194.349 84.3422L191.483 79.0708ZM122.898 141.406C155.269 123.808 179.485 100.825 190.26 80.3114L195.572 83.1016C184.067 105.004 158.781 128.728 125.763 146.677L122.898 141.406ZM34.9955 164.715C58.0705 166.827 90.5269 159.003 122.898 141.406L125.763 146.677C92.7455 164.626 59.0863 172.945 34.4486 170.69L34.9955 164.715ZM15.7013 174.628L33.2892 165.067L36.1548 170.339L18.5669 179.9L15.7013 174.628ZM4.44011 147.632L19.7698 175.831L14.4983 178.697L-0.831341 150.497L4.44011 147.632ZM3.33077 151.649L3.2372 151.7L0.371567 146.429L0.465142 146.378L3.33077 151.649ZM76.2705 55.6326C50.5826 69.5969 29.9744 86.9866 17.1771 103.876C4.23465 120.958 -0.135467 136.679 4.65441 147.829L-0.858491 150.198C-6.98951 135.925 -0.87175 117.762 12.3949 100.253C25.8066 82.5521 47.1287 64.6452 73.4049 50.3612L76.2705 55.6326ZM192.588 45.6662C185.835 35.5828 170.265 30.7013 148.892 32.2744C127.759 33.8298 101.958 41.6684 76.2705 55.6326L73.4049 50.3612C99.681 36.0771 126.303 27.9206 148.451 26.2906C170.36 24.6781 188.929 29.4207 197.573 42.3274L192.588 45.6662ZM196.606 46.5823L196.514 46.6325L193.648 41.361L193.74 41.3109L196.606 46.5823ZM193.541 47.2255L192.537 45.3794L197.809 42.5138L198.812 44.3599L193.541 47.2255Z" fill="#47E49F" mask="url(#path-1-inside-1_10860_3358)"/>
<g filter="url(#filter0_i_10860_3358)">
<ellipse cx="110.047" cy="51.8137" rx="110.047" ry="51.8137" transform="matrix(0.878575 -0.477605 -0.477605 -0.878575 40.3486 219.966)" fill="#0F4E32"/>
</g>
<path d="M202.381 72.9083C197.749 64.3874 184.88 58.785 163.588 60.0188C142.943 61.2151 117.072 68.8453 91.122 82.9523C65.1717 97.0593 44.6999 114.622 32.4696 131.297C19.8557 148.495 17.5594 162.341 22.1915 170.862C26.8235 179.383 39.6926 184.985 60.9848 183.752C81.6295 182.555 107.501 174.925 133.451 160.818C159.401 146.711 179.873 129.149 192.103 112.474C204.717 95.2758 207.014 81.4292 202.381 72.9083Z" stroke="#47E49F" stroke-width="15"/>
<g clip-path="url(#clip0_10860_3358)">
<path d="M105.706 102.733L93.4679 118.467L87.622 119.138L62.3569 130.153L89.6721 129.966L105.706 102.733Z" fill="#47E49F"/>
<path d="M144.61 129.588L159.793 121.334L160.386 114.265L125.294 115.281L159.52 71.8691L123.791 91.2917L98.391 129.906L144.61 129.588Z" fill="#47E49F"/>
<path d="M93.6 137.191L78.589 160.013L90.6951 151.714L102.801 143.415L106.149 139.229L125.173 138.544L93.6 137.191Z" fill="#47E49F"/>
<path d="M69.5235 164.189L85.6206 136.848L53.922 135.489L78.1588 140.904L69.5235 164.189Z" fill="#47E49F"/>
</g>
<line y1="-1.5" x2="29.3458" y2="-1.5" transform="matrix(-0.477605 -0.878575 -0.878575 0.477605 28.989 128.024)" stroke="#47E49F" stroke-width="3"/>
<line y1="-1.5" x2="29.3458" y2="-1.5" transform="matrix(-0.477605 -0.878575 -0.878575 0.477605 103.06 74.1899)" stroke="#47E49F" stroke-width="3"/>
<line y1="-1.5" x2="29.3458" y2="-1.5" transform="matrix(-0.477605 -0.878575 -0.878575 0.477605 155.851 58.0156)" stroke="#47E49F" stroke-width="3"/>
<line y1="-1.5" x2="29.3458" y2="-1.5" transform="matrix(-0.477605 -0.878575 -0.878575 0.477605 166.466 56.4209)" stroke="#47E49F" stroke-width="3"/>
<line y1="-4" x2="29.3458" y2="-4" transform="matrix(-0.477605 -0.878575 -0.878575 0.477605 33.3141 122.541)" stroke="#47E49F" stroke-width="8"/>
<defs>
<filter id="filter0_i_10860_3358" x="12.4614" y="52.3521" width="201.617" height="141.689" filterUnits="userSpaceOnUse" color-interpolation-filters="sRGB">
<feFlood flood-opacity="0" result="BackgroundImageFix"/>
<feBlend mode="normal" in="SourceGraphic" in2="BackgroundImageFix" result="shape"/>
<feColorMatrix in="SourceAlpha" type="matrix" values="0 0 0 0 0 0 0 0 0 0 0 0 0 0 0 0 0 0 127 0" result="hardAlpha"/>
<feOffset dx="1.96721" dy="12.459"/>
<feGaussianBlur stdDeviation="1.31148"/>
<feComposite in2="hardAlpha" operator="arithmetic" k2="-1" k3="1"/>
<feColorMatrix type="matrix" values="0 0 0 0 0 0 0 0 0 0 0 0 0 0 0 0 0 0 1 0"/>
<feBlend mode="normal" in2="shape" result="effect1_innerShadow_10860_3358"/>
</filter>
<clipPath id="clip0_10860_3358">
<rect width="109.13" height="43.5893" fill="white" transform="translate(168.012 116.867) rotate(151.471)"/>
</clipPath>
</defs>
</svg>
