<svg width="173" height="139" viewBox="0 0 173 139" fill="none" xmlns="http://www.w3.org/2000/svg">
<mask id="path-1-inside-1_10860_3273" fill="white">
<path fill-rule="evenodd" clip-rule="evenodd" d="M147.435 82.1868L160.045 87.3467L151.771 107.564L151.705 107.537C142.998 124.236 106.944 125.638 69.6885 110.392C32.4327 95.147 7.70432 68.8725 13.2015 50.8607L13.135 50.8335L13.6976 49.4587C13.7069 49.4356 13.7163 49.4126 13.7257 49.3895C13.7351 49.3665 13.7446 49.3435 13.7541 49.3205L21.4083 30.6157L34.0174 35.7754C49.9943 32.5238 72.9589 35.5257 96.3993 45.1177C119.84 54.7097 138.321 68.6677 147.435 82.1868Z"/>
</mask>
<path fill-rule="evenodd" clip-rule="evenodd" d="M147.435 82.1868L160.045 87.3467L151.771 107.564L151.705 107.537C142.998 124.236 106.944 125.638 69.6885 110.392C32.4327 95.147 7.70432 68.8725 13.2015 50.8607L13.135 50.8335L13.6976 49.4587C13.7069 49.4356 13.7163 49.4126 13.7257 49.3895C13.7351 49.3665 13.7446 49.3435 13.7541 49.3205L21.4083 30.6157L34.0174 35.7754C49.9943 32.5238 72.9589 35.5257 96.3993 45.1177C119.84 54.7097 138.321 68.6677 147.435 82.1868Z" fill="#0F4E32"/>
<path d="M147.435 82.1868L144.948 83.8638L145.457 84.6186L146.299 84.9633L147.435 82.1868ZM160.045 87.3467L162.821 88.4829L163.957 85.7063L161.181 84.5701L160.045 87.3467ZM151.771 107.564L150.635 110.341L153.412 111.477L154.548 108.701L151.771 107.564ZM151.705 107.537L152.841 104.761L150.309 103.725L149.045 106.15L151.705 107.537ZM13.2015 50.8607L16.0708 51.7364L16.8693 49.1201L14.3376 48.0842L13.2015 50.8607ZM13.135 50.8335L10.3585 49.6973L9.22228 52.4739L11.9988 53.61L13.135 50.8335ZM13.6976 49.4587L16.4741 50.5948L16.4791 50.5826L13.6976 49.4587ZM13.7541 49.3205L16.5256 50.4689L16.5306 50.4567L13.7541 49.3205ZM21.4083 30.6157L22.5444 27.8392L19.7679 26.703L18.6317 29.4795L21.4083 30.6157ZM34.0174 35.7754L32.8812 38.552L33.7237 38.8967L34.6157 38.7152L34.0174 35.7754ZM146.299 84.9633L158.909 90.1232L161.181 84.5701L148.571 79.4103L146.299 84.9633ZM157.268 86.2105L148.995 106.428L154.548 108.701L162.821 88.4829L157.268 86.2105ZM152.908 104.788L152.841 104.761L150.568 110.314L150.635 110.341L152.908 104.788ZM149.045 106.15C145.477 112.993 135.785 117.423 121.294 117.946C107.044 118.459 89.1427 115.112 70.8247 107.616L68.5523 113.169C87.4901 120.918 106.243 124.492 121.511 123.942C136.538 123.4 149.226 118.78 154.365 108.924L149.045 106.15ZM70.8247 107.616C52.5066 100.12 37.3936 89.958 27.5914 79.6017C17.624 69.0708 13.8182 59.1173 16.0708 51.7364L10.3321 49.985C7.0876 60.6159 12.8974 72.8055 23.2338 83.7262C33.7355 94.8215 49.6146 105.419 68.5523 113.169L70.8247 107.616ZM14.3376 48.0842L14.2712 48.057L11.9988 53.61L12.0653 53.6372L14.3376 48.0842ZM15.9115 51.9697L16.4741 50.5948L10.9211 48.3225L10.3585 49.6973L15.9115 51.9697ZM16.4791 50.5826C16.4868 50.5636 16.4945 50.5447 16.5022 50.5257L10.9492 48.2534C10.9381 48.2805 10.927 48.3076 10.9161 48.3347L16.4791 50.5826ZM16.5022 50.5257C16.51 50.5067 16.5178 50.4878 16.5256 50.4689L10.9826 48.1721C10.9714 48.1992 10.9603 48.2263 10.9492 48.2534L16.5022 50.5257ZM16.5306 50.4567L24.1848 31.7519L18.6317 29.4795L10.9776 48.1844L16.5306 50.4567ZM20.2721 33.3922L32.8812 38.552L35.1536 32.9989L22.5444 27.8392L20.2721 33.3922ZM34.6157 38.7152C49.8238 35.62 72.1635 38.4417 95.2632 47.8942L97.5355 42.3412C73.7543 32.6097 50.1648 29.4276 33.4191 32.8357L34.6157 38.7152ZM95.2632 47.8942C118.363 57.3467 136.272 70.9953 144.948 83.8638L149.923 80.5098C140.37 66.3402 121.317 52.0726 97.5355 42.3412L95.2632 47.8942Z" fill="#47E49F" mask="url(#path-1-inside-1_10860_3273)"/>
<path d="M154.59 87.4747C152.066 93.6432 143.719 98.3955 129.213 99.145C115.139 99.8722 97.0537 96.6305 78.4375 89.0126C59.8214 81.3947 44.6516 71.0283 35.1247 60.6434C25.3055 49.9399 22.6845 40.6995 25.2086 34.531C27.7328 28.3624 36.0798 23.6102 50.5857 22.8607C64.6597 22.1334 82.7449 25.3752 101.361 32.993C119.977 40.6109 135.147 50.9774 144.674 61.3622C154.493 72.0658 157.114 81.3062 154.59 87.4747Z" fill="#0F4E32" stroke="#47E49F" stroke-width="10"/>
<g clip-path="url(#clip0_10860_3273)">
<path d="M86.8716 74.4485L77.4222 64.7144L73.4174 64.6954L55.5058 59.1229L73.999 57.218L86.8716 74.4485Z" fill="#47E49F"/>
<path d="M111.193 53.387L122.079 57.8415L123.006 62.5799L99.1905 64.5029L125.574 91.3259L99.9578 80.8438L79.9019 56.6099L111.193 53.387Z" fill="#47E49F"/>
<path d="M76.1188 52.0378L64.2661 37.7151L73.0734 42.429L81.8807 47.1429L84.4567 49.7259L97.3778 48.7742L76.1188 52.0378Z" fill="#47E49F"/>
<path d="M57.8225 35.5639L70.7462 52.8636L49.4025 56.1403L65.3965 50.6745L57.8225 35.5639Z" fill="#47E49F"/>
</g>
<line x1="34.4785" y1="63.6137" x2="26.9143" y2="82.0986" stroke="#47E49F" stroke-width="3"/>
<line x1="88.5928" y1="94.5246" x2="81.0287" y2="113.009" stroke="#47E49F" stroke-width="3"/>
<line x1="125.511" y1="101.539" x2="117.946" y2="120.024" stroke="#47E49F" stroke-width="3"/>
<line x1="132.811" y1="101.829" x2="125.246" y2="120.314" stroke="#47E49F" stroke-width="3"/>
<line x1="40.1268" y1="67.948" x2="32.5626" y2="86.4329" stroke="#47E49F" stroke-width="8"/>
<defs>
<clipPath id="clip0_10860_3273">
<rect width="74.2732" height="29.6667" fill="white" transform="matrix(-0.925509 -0.378725 -0.378725 0.925509 127.971 60.2527)"/>
</clipPath>
</defs>
</svg>
