<svg width="105" height="92" viewBox="0 0 105 92" fill="none" xmlns="http://www.w3.org/2000/svg">
<mask id="path-1-inside-1_10860_3307" fill="white">
<path fill-rule="evenodd" clip-rule="evenodd" d="M87.6288 58.4973L94.6635 62.6032L88.0794 73.8839L88.0421 73.8622C81.4944 83.0224 60.0312 80.8463 39.2444 68.7138C18.4575 56.5813 6.00718 38.9634 10.7629 28.7572L10.7258 28.7356L11.1744 27.967C11.1817 27.9544 11.189 27.9418 11.1963 27.9293C11.2036 27.9168 11.2109 27.9043 11.2183 27.8918L17.3099 17.4548L24.3445 21.5606C34.0753 20.9672 47.4224 24.6593 60.5017 32.2932C73.5811 39.9271 83.3599 49.7328 87.6288 58.4973Z"/>
</mask>
<path fill-rule="evenodd" clip-rule="evenodd" d="M87.6288 58.4973L94.6635 62.6032L88.0794 73.8839L88.0421 73.8622C81.4944 83.0224 60.0312 80.8463 39.2444 68.7138C18.4575 56.5813 6.00718 38.9634 10.7629 28.7572L10.7258 28.7356L11.1744 27.967C11.1817 27.9544 11.189 27.9418 11.1963 27.9293C11.2036 27.9168 11.2109 27.9043 11.2183 27.8918L17.3099 17.4548L24.3445 21.5606C34.0753 20.9672 47.4224 24.6593 60.5017 32.2932C73.5811 39.9271 83.3599 49.7328 87.6288 58.4973Z" fill="#0F4E32"/>
<path d="M87.6288 58.4973L84.9317 59.8109L85.3303 60.6294L86.1165 61.0883L87.6288 58.4973ZM94.6635 62.6032L97.2545 64.1155L98.7667 61.5245L96.1758 60.0122L94.6635 62.6032ZM88.0794 73.8839L86.5671 76.4749L89.1581 77.9871L90.6703 75.3962L88.0794 73.8839ZM88.0421 73.8622L89.5543 71.2712L87.192 69.8924L85.6014 72.1176L88.0421 73.8622ZM10.7629 28.7572L13.4822 30.0243L14.6375 27.5451L12.2752 26.1663L10.7629 28.7572ZM10.7258 28.7356L8.13484 27.2233L6.62259 29.8143L9.21355 31.3265L10.7258 28.7356ZM11.1744 27.967L13.7654 29.4792L13.7718 29.4681L11.1744 27.967ZM11.2183 27.8918L13.8028 29.4151L13.8093 29.404L11.2183 27.8918ZM17.3099 17.4548L18.8222 14.8639L16.2312 13.3516L14.719 15.9426L17.3099 17.4548ZM24.3445 21.5606L22.8323 24.1516L23.6185 24.6105L24.5271 24.5551L24.3445 21.5606ZM86.1165 61.0883L93.1513 65.1942L96.1758 60.0122L89.141 55.9063L86.1165 61.0883ZM92.0725 61.091L85.4884 72.3717L90.6703 75.3962L97.2545 64.1155L92.0725 61.091ZM89.5916 71.293L89.5543 71.2712L86.5298 76.4531L86.5671 76.4749L89.5916 71.293ZM85.6014 72.1176C83.3155 75.3156 77.8097 77.1767 69.294 76.2889C61.0173 75.4261 50.8609 72.0203 40.7566 66.1229L37.7321 71.3048C48.4147 77.5398 59.3832 81.2883 68.6719 82.2566C77.7214 83.2 86.2209 81.5689 90.4827 75.6067L85.6014 72.1176ZM40.7566 66.1229C30.6523 60.2254 22.6919 53.057 17.8703 46.2749C12.9093 39.2968 11.8219 33.5875 13.4822 30.0243L8.04367 27.4901C4.94823 34.1331 7.70815 42.3359 12.9801 49.7514C18.3914 57.3629 27.0496 65.0698 37.7321 71.3048L40.7566 66.1229ZM12.2752 26.1663L12.2381 26.1446L9.21355 31.3265L9.2507 31.3482L12.2752 26.1663ZM13.3168 30.2478L13.7654 29.4792L8.58345 26.4547L8.13484 27.2233L13.3168 30.2478ZM13.7718 29.4681C13.777 29.4592 13.7821 29.4504 13.7872 29.4416L8.6053 26.4171C8.59583 26.4333 8.58639 26.4496 8.57698 26.4658L13.7718 29.4681ZM13.7872 29.4416C13.7924 29.4327 13.7976 29.4239 13.8027 29.4151L8.63384 26.3684C8.62429 26.3846 8.61478 26.4008 8.6053 26.4171L13.7872 29.4416ZM13.8093 29.404L19.9009 18.9671L14.719 15.9426L8.62733 26.3795L13.8093 29.404ZM15.7977 20.0458L22.8323 24.1516L25.8568 18.9697L18.8222 14.8639L15.7977 20.0458ZM24.5271 24.5551C33.4747 24.0094 46.2282 27.4359 58.9895 34.8841L62.014 29.7022C48.6166 21.8827 34.6759 17.925 24.1619 18.5662L24.5271 24.5551ZM58.9895 34.8841C71.7508 42.3324 81.0064 51.7518 84.9317 59.8109L90.3259 57.1837C85.7134 47.7137 75.4113 37.5218 62.014 29.7022L58.9895 34.8841Z" fill="#47E49F" mask="url(#path-1-inside-1_10860_3307)"/>
<path d="M91.4146 62.219C89.409 65.6553 84.0765 67.7734 75.4263 67.0078C67.0346 66.265 56.5984 62.8384 46.2124 56.7764C35.8263 50.7145 27.7102 43.3129 22.9365 36.3714C18.0157 29.2161 17.2374 23.5314 19.243 20.0951C21.2486 16.6589 26.5811 14.5408 35.2313 15.3064C43.623 16.0491 54.0592 19.4758 64.4452 25.5377C74.8313 31.5997 82.9474 39.0013 87.7212 45.9427C92.6419 53.098 93.4202 58.7827 91.4146 62.219Z" fill="#0F4E32" stroke="#47E49F" stroke-width="6"/>
<g clip-path="url(#clip0_10860_3307)">
<path d="M52.4146 48.8657L47.6315 42.3144L45.2619 41.9693L35.1214 37.1765L46.2297 37.5905L52.4146 48.8657Z" fill="#47E49F"/>
<path d="M68.5711 38.4236L74.6448 41.9686L74.7987 44.8514L60.5376 44.0043L73.9221 62.0854L59.6295 53.7434L49.7754 37.7228L68.5711 38.4236Z" fill="#47E49F"/>
<path d="M47.9167 34.7001L42.0931 25.2317L46.9147 28.757L51.7363 32.2823L53.0461 34.0265L60.7758 34.5403L47.9167 34.7001Z" fill="#47E49F"/>
<path d="M38.4573 23.4209L44.6668 34.7413L31.7564 34.9017L41.6819 32.9991L38.4573 23.4209Z" fill="#47E49F"/>
</g>
<line x1="22.8189" y1="38.3863" x2="16.7991" y2="48.7001" stroke="#47E49F" stroke-width="3"/>
<line x1="52.2811" y1="61.1995" x2="46.2614" y2="71.5133" stroke="#47E49F" stroke-width="3"/>
<line x1="73.5548" y1="68.4312" x2="67.535" y2="78.745" stroke="#47E49F" stroke-width="3"/>
<line x1="77.8525" y1="69.2112" x2="71.8327" y2="79.525" stroke="#47E49F" stroke-width="3"/>
<line x1="26.6696" y1="41.9297" x2="20.6499" y2="52.2435" stroke="#47E49F" stroke-width="8"/>
<defs>
<clipPath id="clip0_10860_3307">
<rect width="44.4095" height="17.7383" fill="white" transform="matrix(-0.863655 -0.504083 -0.504083 0.863655 77.9326 43.8875)"/>
</clipPath>
</defs>
</svg>
