<svg width="308" height="60" viewBox="0 0 308 60" fill="none" xmlns="http://www.w3.org/2000/svg">
<g clip-path="url(#clip0_9786_1673)">
<path d="M39.2168 57.44L27.5 46.5733L24 49.5733L6.38737 52.8274L21.8383 35.2838L39.2168 57.44Z" fill="#47E49F"/>
<path d="M52.9149 0H64L66.5 8.07324L46.413 29.6841L79 59.3671H52.9149L26.771 29.6841L52.9149 0Z" fill="#47E49F"/>
<path d="M21.8385 24.0834L6.38755 6.53973L15.7524 8.59526L25.1172 10.6508L28.2862 13.4824L39.217 1.92712L21.8385 24.0834Z" fill="#47E49F"/>
<path d="M9.53674e-06 7.43903L17.4478 29.6847L9.53674e-06 51.9292L12 29.6847L9.53674e-06 7.43903Z" fill="#47E49F"/>
</g>
<path d="M260.462 32.7731C261.821 32.7731 262.923 31.671 262.923 30.3116C262.923 28.9521 261.821 27.85 260.462 27.85C259.102 27.85 258 28.9521 258 30.3116C258 31.671 259.102 32.7731 260.462 32.7731Z" fill="#47E49F"/>
<path d="M226.899 37.0908L225.106 39.5925C224.839 39.9671 225.106 40.4888 225.575 40.4888H229.16C229.628 40.4888 229.896 39.9671 229.628 39.5925L227.835 37.0908C227.608 36.7698 227.14 36.7698 226.912 37.0908H226.899Z" fill="#47E49F"/>
<path fill-rule="evenodd" clip-rule="evenodd" d="M227.5 23.1835L240.382 40.0634C241.052 40.9415 242.307 41.1101 243.185 40.44C244.063 39.7699 244.232 38.5148 243.562 37.6367L229.871 19.6968C228.657 18.1068 226.257 18.127 225.071 19.7372L211.862 37.6637C211.207 38.5529 211.396 39.8049 212.286 40.4602C213.175 41.1154 214.427 40.9257 215.082 40.0365L227.5 23.1835ZM177 20.85C177 19.7455 177.895 18.85 179 18.85H204.5C205.605 18.85 206.5 19.7455 206.5 20.85C206.5 21.9546 205.605 22.85 204.5 22.85H193.75V38.85C193.75 39.9546 192.855 40.85 191.75 40.85C190.645 40.85 189.75 39.9546 189.75 38.85V22.85H179C177.895 22.85 177 21.9546 177 20.85ZM134.5 29.94C134.5 24.141 139.201 19.44 145 19.44H165C166.105 19.44 167 20.3354 167 21.44C167 22.5446 166.105 23.44 165 23.44H145C141.41 23.44 138.5 26.3501 138.5 29.94C138.5 33.5298 141.41 36.44 145 36.44H165C166.105 36.44 167 37.3354 167 38.44C167 39.5446 166.105 40.44 165 40.44H145C139.201 40.44 134.5 35.739 134.5 29.94ZM120.5 23.9278V38.85C120.5 39.9546 121.395 40.85 122.5 40.85C123.605 40.85 124.5 39.9546 124.5 38.85V21.8889C124.5 19.3956 121.635 17.9904 119.663 19.5167L107.02 29.305L94.8741 19.5881C92.9098 18.0166 90 19.4151 90 21.9307V38.85C90 39.9546 90.8954 40.85 92 40.85C93.1046 40.85 94 39.9546 94 38.85V24.0113L104.521 32.4285C105.964 33.5823 108.008 33.5986 109.469 32.4679L120.5 23.9278ZM143.5 29.94C143.5 28.8354 144.395 27.94 145.5 27.94H157C158.105 27.94 159 28.8354 159 29.94C159 31.0446 158.105 31.94 157 31.94H145.5C144.395 31.94 143.5 31.0446 143.5 29.94Z" fill="#47E49F"/>
<path fill-rule="evenodd" clip-rule="evenodd" d="M274.418 19.6272C275.093 18.7532 276.349 18.5922 277.223 19.2676L287.683 27.3501H293.817L304.277 19.2676C305.151 18.5922 306.407 18.7532 307.083 19.6272C307.758 20.5013 307.597 21.7573 306.723 22.4327L295.993 30.724C295.468 31.1299 294.823 31.3501 294.159 31.3501H287.341C286.678 31.3501 286.032 31.1299 285.507 30.724L274.777 22.4327C273.903 21.7573 273.742 20.5013 274.418 19.6272Z" fill="#47E49F"/>
<path fill-rule="evenodd" clip-rule="evenodd" d="M274.418 40.0728C275.093 40.9469 276.349 41.1079 277.223 40.4325L287.683 32.3499H293.817L304.277 40.4325C305.151 41.1079 306.407 40.9469 307.083 40.0728C307.758 39.1988 307.597 37.9428 306.723 37.2674L295.993 28.9761C295.468 28.5702 294.823 28.3499 294.159 28.3499H287.341C286.678 28.3499 286.032 28.5702 285.507 28.9761L274.777 37.2674C273.903 37.9428 273.742 39.1988 274.418 40.0728Z" fill="#47E49F"/>
<defs>
<clipPath id="clip0_9786_1673">
<rect width="70" height="59.3671" fill="white" transform="matrix(-1 0 0 1 70 0)"/>
</clipPath>
</defs>
</svg>
