<svg width="225" height="182" viewBox="0 0 225 182" fill="none" xmlns="http://www.w3.org/2000/svg">
<mask id="path-1-inside-1_10860_3375" fill="white">
<path fill-rule="evenodd" clip-rule="evenodd" d="M199.253 43.2448C199.277 43.3146 199.301 43.3844 199.325 43.4545C199.349 43.5245 199.372 43.5946 199.395 43.6648L207.803 68.4504L191.016 74.1446C178.1 90.9752 152.983 107.628 121.773 118.215C90.5635 128.801 60.498 130.867 40.0075 125.368L23.2188 131.063L14.0878 104.145L14.1776 104.114C8.47653 80.2824 42.69 48.1325 92.2929 31.3067C141.896 14.4809 188.609 19.1798 198.584 41.5617L198.672 41.5319L199.253 43.2448Z"/>
</mask>
<path fill-rule="evenodd" clip-rule="evenodd" d="M199.253 43.2448C199.277 43.3146 199.301 43.3844 199.325 43.4545C199.349 43.5245 199.372 43.5946 199.395 43.6648L207.803 68.4504L191.016 74.1446C178.1 90.9752 152.983 107.628 121.773 118.215C90.5635 128.801 60.498 130.867 40.0075 125.368L23.2188 131.063L14.0878 104.145L14.1776 104.114C8.47653 80.2824 42.69 48.1325 92.2929 31.3067C141.896 14.4809 188.609 19.1798 198.584 41.5617L198.672 41.5319L199.253 43.2448Z" fill="#0F4E32"/>
<path d="M199.253 43.2448L196.421 44.2372L196.416 44.2229L196.412 44.2085L199.253 43.2448ZM199.395 43.6648L196.554 44.6285L196.549 44.6141L196.544 44.5997L199.395 43.6648ZM207.803 68.4504L210.644 67.4867L211.607 70.3277L208.766 71.2914L207.803 68.4504ZM191.016 74.1446L188.636 72.3181L189.19 71.596L190.052 71.3036L191.016 74.1446ZM40.0075 125.368L39.0438 122.527L39.9059 122.235L40.7851 122.471L40.0075 125.368ZM23.2188 131.063L24.1825 133.904L21.3415 134.868L20.3778 132.027L23.2188 131.063ZM14.0878 104.145L11.2468 105.108L10.2831 102.267L13.1241 101.304L14.0878 104.145ZM14.1776 104.114L17.0953 103.416L17.7317 106.076L15.1413 106.955L14.1776 104.114ZM198.584 41.5617L199.548 44.4027L196.957 45.2814L195.844 42.7829L198.584 41.5617ZM198.672 41.5319L197.708 38.6909L200.549 37.7272L201.513 40.5682L198.672 41.5319ZM196.484 44.4182C196.463 44.3575 196.442 44.2972 196.421 44.2372L202.084 42.2524C202.112 42.3319 202.139 42.4114 202.166 42.4908L196.484 44.4182ZM196.544 44.5997C196.525 44.5393 196.504 44.4788 196.484 44.4182L202.166 42.4908C202.193 42.5702 202.219 42.6499 202.246 42.7299L196.544 44.5997ZM204.962 69.4141L196.554 44.6285L202.236 42.7011L210.644 67.4867L204.962 69.4141ZM190.052 71.3036L206.839 65.6094L208.766 71.2914L191.98 76.9856L190.052 71.3036ZM120.809 115.374C151.67 104.906 176.197 88.5264 188.636 72.3181L193.396 75.971C180.002 93.4241 154.295 110.351 122.737 121.056L120.809 115.374ZM40.7851 122.471C60.5178 127.766 89.9485 125.842 120.809 115.374L122.737 121.056C91.1785 131.761 60.4782 133.968 39.2299 128.266L40.7851 122.471ZM22.2551 128.222L39.0438 122.527L40.9712 128.209L24.1825 133.904L22.2551 128.222ZM16.9288 103.181L26.0598 130.099L20.3778 132.027L11.2468 105.108L16.9288 103.181ZM15.1413 106.955L15.0515 106.986L13.1241 101.304L13.2139 101.273L15.1413 106.955ZM93.2566 34.1477C68.7722 42.453 48.2138 54.5029 34.5445 67.2752C20.6994 80.2116 14.64 93.1526 17.0953 103.416L11.2599 104.812C8.01411 91.2438 16.2109 76.194 30.4481 62.8911C44.8609 49.4241 66.2107 36.9861 91.3292 28.4657L93.2566 34.1477ZM195.844 42.7829C191.548 33.1438 178.865 26.5602 160.007 24.7171C141.388 22.8973 117.741 25.8423 93.2566 34.1477L91.3292 28.4657C116.448 19.9452 140.959 16.8268 160.591 18.7455C179.983 20.6409 195.645 27.5977 201.324 40.3404L195.844 42.7829ZM199.635 44.3729L199.548 44.4027L197.62 38.7207L197.708 38.6909L199.635 44.3729ZM196.412 44.2085L195.831 42.4956L201.513 40.5682L202.094 42.2811L196.412 44.2085Z" fill="#47E49F" mask="url(#path-1-inside-1_10860_3375)"/>
<g filter="url(#filter0_i_10860_3375)">
<ellipse cx="97.457" cy="50.9923" rx="97.457" ry="50.9923" transform="matrix(0.947001 -0.321232 -0.321232 -0.947001 40.3284 181.496)" fill="#0F4E32"/>
</g>
<path d="M201.429 73.0032C198.253 63.639 187.402 55.9409 168.759 53.0274C150.515 50.1762 126.845 52.3766 102.269 60.713C77.6927 69.0495 57.5686 81.7046 44.8244 95.0673C31.8019 108.722 27.8741 121.433 31.0505 130.797C34.227 140.162 45.0778 147.86 63.7204 150.773C81.9645 153.624 105.635 151.424 130.211 143.088C154.787 134.751 174.911 122.096 187.655 108.733C200.678 95.0786 204.606 82.3675 201.429 73.0032Z" stroke="#47E49F" stroke-width="15"/>
<g clip-path="url(#clip0_10860_3375)">
<path d="M112.749 82.3327L99.9519 94.9652L94.6794 94.4646L70.8961 100.049L95.17 105.202L112.749 82.3327Z" fill="#47E49F"/>
<path d="M143.991 115.564L158.484 110.648L159.879 104.015L128.599 98.1351L164.316 63.3706L130.21 74.9395L102.918 106.846L143.991 115.564Z" fill="#47E49F"/>
<path d="M97.77 112.867L81.6406 131.724L93.4077 126.164L105.175 120.604L108.661 117.261L125.635 120.321L97.77 112.867Z" fill="#47E49F"/>
<path d="M73.0792 133.942L90.7279 110.981L62.7522 103.498L83.6052 113.397L73.0792 133.942Z" fill="#47E49F"/>
</g>
<line y1="-1.5" x2="25.9885" y2="-1.5" transform="matrix(-0.321232 -0.947001 -0.947001 0.321232 40.9807 89.8774)" stroke="#47E49F" stroke-width="3"/>
<line y1="-1.5" x2="25.9885" y2="-1.5" transform="matrix(-0.321232 -0.947001 -0.947001 0.321232 113.731 54.0525)" stroke="#47E49F" stroke-width="3"/>
<line y1="-1.5" x2="25.9885" y2="-1.5" transform="matrix(-0.321232 -0.947001 -0.947001 0.321232 162.237 47.8884)" stroke="#47E49F" stroke-width="3"/>
<line y1="-1.5" x2="25.9885" y2="-1.5" transform="matrix(-0.321232 -0.947001 -0.947001 0.321232 171.741 48.0959)" stroke="#47E49F" stroke-width="3"/>
<line y1="-4" x2="25.9885" y2="-4" transform="matrix(-0.321232 -0.947001 -0.947001 0.321232 45.5822 85.7451)" stroke="#47E49F" stroke-width="8"/>
<defs>
<filter id="filter0_i_10860_3375" x="22.4899" y="44.3438" width="189.467" height="117.736" filterUnits="userSpaceOnUse" color-interpolation-filters="sRGB">
<feFlood flood-opacity="0" result="BackgroundImageFix"/>
<feBlend mode="normal" in="SourceGraphic" in2="BackgroundImageFix" result="shape"/>
<feColorMatrix in="SourceAlpha" type="matrix" values="0 0 0 0 0 0 0 0 0 0 0 0 0 0 0 0 0 0 127 0" result="hardAlpha"/>
<feOffset dx="1.96721" dy="12.459"/>
<feGaussianBlur stdDeviation="1.31148"/>
<feComposite in2="hardAlpha" operator="arithmetic" k2="-1" k3="1"/>
<feColorMatrix type="matrix" values="0 0 0 0 0 0 0 0 0 0 0 0 0 0 0 0 0 0 1 0"/>
<feBlend mode="normal" in2="shape" result="effect1_innerShadow_10860_3375"/>
</filter>
<clipPath id="clip0_10860_3375">
<rect width="96.6449" height="42.8983" fill="white" transform="translate(166.329 107.987) rotate(161.263)"/>
</clipPath>
</defs>
</svg>
