<svg width="107" height="81" viewBox="0 0 107 81" fill="none" xmlns="http://www.w3.org/2000/svg">
<mask id="path-1-inside-1_10860_3324" fill="white">
<path fill-rule="evenodd" clip-rule="evenodd" d="M87.8225 22.3727L95.996 19.8423L100.053 32.9459L100.009 32.9594C102.452 44.5296 85.531 59.5965 61.3846 67.0718C37.2381 74.547 14.7642 71.6757 10.2424 60.7492L10.1997 60.7624L9.94128 59.9275C9.93059 59.8941 9.92005 59.8607 9.90968 59.8272C9.89931 59.7937 9.8891 59.7601 9.87907 59.7265L6.14317 47.6588L14.3157 45.1288C20.7643 37.1772 33.0959 29.4691 48.2876 24.7661C63.4794 20.063 78.009 19.4554 87.8225 22.3727Z"/>
</mask>
<path fill-rule="evenodd" clip-rule="evenodd" d="M87.8225 22.3727L95.996 19.8423L100.053 32.9459L100.009 32.9594C102.452 44.5296 85.531 59.5965 61.3846 67.0718C37.2381 74.547 14.7642 71.6757 10.2424 60.7492L10.1997 60.7624L9.94128 59.9275C9.93059 59.8941 9.92005 59.8607 9.90968 59.8272C9.89931 59.7937 9.8891 59.7601 9.87907 59.7265L6.14317 47.6588L14.3157 45.1288C20.7643 37.1772 33.0959 29.4691 48.2876 24.7661C63.4794 20.063 78.009 19.4554 87.8225 22.3727Z" fill="#0F4E32"/>
<path d="M87.8225 22.3727L86.9676 25.2483L87.8402 25.5077L88.7097 25.2385L87.8225 22.3727ZM95.996 19.8423L98.8618 18.9551L97.9746 16.0893L95.1088 16.9765L95.996 19.8423ZM100.053 32.9459L100.94 35.8117L103.806 34.9245L102.918 32.0587L100.053 32.9459ZM100.009 32.9594L99.1217 30.0936L96.5086 30.9025L97.0736 33.5791L100.009 32.9594ZM10.2424 60.7492L13.0144 59.602L11.9684 57.0744L9.35519 57.8834L10.2424 60.7492ZM10.1997 60.7624L7.33393 61.6496L8.22113 64.5154L11.0869 63.6282L10.1997 60.7624ZM9.94128 59.9275L12.8071 59.0403L12.8027 59.0261L12.7982 59.012L9.94128 59.9275ZM9.87907 59.7265L12.7535 58.8677L12.7493 58.8535L12.7449 58.8393L9.87907 59.7265ZM6.14317 47.6588L5.25598 44.793L2.39016 45.6802L3.27736 48.546L6.14317 47.6588ZM14.3157 45.1288L15.2029 47.9946L16.0724 47.7254L16.6457 47.0185L14.3157 45.1288ZM88.7097 25.2385L96.8832 22.7081L95.1088 16.9765L86.9353 19.5069L88.7097 25.2385ZM93.1302 20.7295L97.1868 33.8331L102.918 32.0587L98.8618 18.9551L93.1302 20.7295ZM99.1654 30.08L99.1217 30.0936L100.896 35.8252L100.94 35.8117L99.1654 30.08ZM97.0736 33.5791C97.944 37.7017 95.4212 43.3355 88.679 49.3051C82.1168 55.1152 72.2508 60.5673 60.4974 64.2059L62.2718 69.9376C74.6648 66.1009 85.3324 60.282 92.6564 53.7973C99.8004 47.472 104.517 39.7872 102.944 32.3397L97.0736 33.5791ZM60.4974 64.2059C48.7439 67.8446 37.5232 68.9205 28.826 67.8343C19.8903 66.7183 14.6256 63.4954 13.0144 59.602L7.47038 61.8963C10.381 68.9296 18.6141 72.6055 28.0824 73.788C37.7893 75.0003 49.8787 73.7742 62.2718 69.9376L60.4974 64.2059ZM9.35519 57.8834L9.31255 57.8966L11.0869 63.6282L11.1296 63.615L9.35519 57.8834ZM13.0656 59.8752L12.8071 59.0403L7.07547 60.8147L7.33393 61.6496L13.0656 59.8752ZM12.7982 59.012C12.7905 58.9881 12.7829 58.964 12.7755 58.94L7.04387 60.7144C7.05716 60.7573 7.07066 60.8002 7.08437 60.8429L12.7982 59.012ZM12.7755 58.94C12.768 58.9159 12.7607 58.8918 12.7535 58.8677L7.00464 60.5854C7.0175 60.6284 7.03057 60.6714 7.04387 60.7144L12.7755 58.94ZM12.7449 58.8393L9.00898 46.7717L3.27736 48.546L7.01326 60.6137L12.7449 58.8393ZM7.03037 50.5247L15.2029 47.9946L13.4285 42.263L5.25598 44.793L7.03037 50.5247ZM16.6457 47.0185C22.6002 39.6761 34.3348 32.226 49.1748 27.6319L47.4004 21.9002C31.8569 26.7122 18.9284 34.6782 11.9856 43.2392L16.6457 47.0185ZM49.1748 27.6319C64.0148 23.0377 77.9062 22.5546 86.9676 25.2483L88.6773 19.497C78.1119 16.3562 62.9439 17.0883 47.4004 21.9002L49.1748 27.6319Z" fill="#47E49F" mask="url(#path-1-inside-1_10860_3324)"/>
<path d="M92.5818 22.3357C93.6631 25.8285 91.8527 31.1316 85.1768 37.2305C78.7563 43.0961 68.8142 48.6864 56.842 52.3928C44.8699 56.0991 33.5082 57.104 24.8966 55.892C15.9425 54.6318 11.4524 51.2791 10.3711 47.7863C9.28985 44.2935 11.1003 38.9904 17.7762 32.8915C24.1966 27.0259 34.1388 21.4356 46.1109 17.7292C58.0831 14.0229 69.4448 13.018 78.0563 14.23C87.0104 15.4902 91.5005 18.8429 92.5818 22.3357Z" fill="#0F4E32" stroke="#47E49F" stroke-width="8"/>
<g clip-path="url(#clip0_10860_3324)">
<path d="M55.374 42.7876L46.9084 41.8389L44.9592 43.4277L34.0514 47.8735L42.2573 39.5704L55.374 42.7876Z" fill="#47E49F"/>
<path d="M58.7615 22.8711L65.8167 20.687L68.157 22.6143L57.3779 33.05L80.8726 35.5267L64.2706 40.6664L44.8766 36.9201L58.7615 22.8711Z" fill="#47E49F"/>
<path d="M41.218 36.2129L29.7561 33.9986L35.9072 32.7695L42.0582 31.5405L44.3379 31.7649L50.2226 26.1475L41.218 36.2129Z" fill="#47E49F"/>
<path d="M25.7736 35.5269L38.9427 38.7572L29.9021 48.8628L35.4754 39.8306L25.7736 35.5269Z" fill="#47E49F"/>
</g>
<line x1="26.1817" y1="58.2766" x2="29.8906" y2="70.257" stroke="#47E49F" stroke-width="3"/>
<line x1="64.7532" y1="51.6687" x2="68.462" y2="63.6491" stroke="#47E49F" stroke-width="3"/>
<line x1="85.4508" y1="40.3384" x2="89.1597" y2="52.3188" stroke="#47E49F" stroke-width="3"/>
<line x1="89.105" y1="35.8047" x2="92.8138" y2="47.7851" stroke="#47E49F" stroke-width="3"/>
<line x1="31.9143" y1="58.0881" x2="35.6232" y2="70.0685" stroke="#47E49F" stroke-width="6"/>
<defs>
<clipPath id="clip0_10860_3324">
<rect width="46.6381" height="18.6285" fill="white" transform="matrix(-0.955271 0.295732 0.295732 0.955271 69.6357 19.5046)"/>
</clipPath>
</defs>
</svg>
