<svg width="231" height="272" viewBox="0 0 231 272" fill="none" xmlns="http://www.w3.org/2000/svg">
<g filter="url(#filter0_d_10860_3392)">
<mask id="path-1-inside-1_10860_3392" fill="white">
<path fill-rule="evenodd" clip-rule="evenodd" d="M196.462 75.9444L215.393 45.969L253.636 71.7117L253.565 71.8169C279.218 92.7619 268.785 155.35 229.254 214.075C189.724 272.801 135.665 306.023 106.605 290.139L106.535 290.244L104.328 288.758C104.305 288.743 104.281 288.727 104.258 288.711C104.234 288.695 104.211 288.68 104.187 288.664L74.6654 268.791L88.0573 247.587C88.5502 219.061 101.873 181.197 126.362 144.815C147.58 113.294 172.984 89.1202 196.462 75.9444Z"/>
</mask>
<path fill-rule="evenodd" clip-rule="evenodd" d="M196.462 75.9444L215.393 45.969L253.636 71.7117L253.565 71.8169C279.218 92.7619 268.785 155.35 229.254 214.075C189.724 272.801 135.665 306.023 106.605 290.139L106.535 290.244L104.328 288.758C104.305 288.743 104.281 288.727 104.258 288.711C104.234 288.695 104.211 288.68 104.187 288.664L74.6654 268.791L88.0573 247.587C88.5502 219.061 101.873 181.197 126.362 144.815C147.58 113.294 172.984 89.1202 196.462 75.9444Z" fill="#0F4E32"/>
<path d="M196.462 75.9444L197.93 78.5605L198.592 78.1887L198.998 77.5463L196.462 75.9444ZM215.393 45.969L217.068 43.4803L214.506 41.7555L212.857 44.367L215.393 45.969ZM253.636 71.7117L256.125 73.387L257.8 70.8983L255.311 69.223L253.636 71.7117ZM253.565 71.8169L251.077 70.1417L249.549 72.4108L251.668 74.1407L253.565 71.8169ZM106.605 290.139L108.044 287.506L105.644 286.194L104.117 288.464L106.605 290.139ZM106.535 290.244L104.859 292.732L107.348 294.408L109.023 291.919L106.535 290.244ZM104.328 288.758L106.003 286.27L105.996 286.265L104.328 288.758ZM104.187 288.664L105.87 286.18L105.863 286.175L104.187 288.664ZM74.6654 268.791L72.1289 267.19L70.573 269.653L72.9901 271.28L74.6654 268.791ZM88.0573 247.587L90.5938 249.189L91.0423 248.479L91.0569 247.639L88.0573 247.587ZM198.998 77.5463L217.93 47.5709L212.857 44.367L193.925 74.3424L198.998 77.5463ZM213.718 48.4577L251.961 74.2004L255.311 69.223L217.068 43.4803L213.718 48.4577ZM251.147 70.0365L251.077 70.1417L256.054 73.4921L256.125 73.387L251.147 70.0365ZM251.668 74.1407C263.179 83.5387 267.194 102.936 262.896 128.277C258.638 153.381 246.344 183.315 226.766 212.4L231.743 215.751C251.695 186.11 264.383 155.387 268.811 129.28C273.199 103.41 269.605 81.0401 255.463 69.4931L251.668 74.1407ZM226.766 212.4C207.188 241.485 184.081 264.141 162.426 277.534C140.565 291.054 121.083 294.634 108.044 287.506L105.166 292.771C121.187 301.528 143.265 296.439 165.581 282.637C188.103 268.709 211.791 245.391 231.743 215.751L226.766 212.4ZM104.117 288.464L104.046 288.569L109.023 291.919L109.094 291.814L104.117 288.464ZM108.21 287.755L106.003 286.27L102.653 291.247L104.859 292.732L108.21 287.755ZM105.996 286.265C105.975 286.251 105.954 286.237 105.933 286.223L102.582 291.2C102.608 291.217 102.634 291.235 102.66 291.252L105.996 286.265ZM105.933 286.223C105.912 286.208 105.891 286.194 105.87 286.18L102.505 291.148C102.531 291.165 102.557 291.183 102.582 291.2L105.933 286.223ZM105.863 286.175L76.3406 266.303L72.9901 271.28L102.512 291.152L105.863 286.175ZM77.2018 270.393L90.5938 249.189L85.5208 245.985L72.1289 267.19L77.2018 270.393ZM91.0569 247.639C91.5366 219.872 104.567 182.567 128.851 146.49L123.874 143.14C99.1784 179.827 85.5637 218.25 85.0578 247.535L91.0569 247.639ZM128.851 146.49C149.874 115.259 174.955 91.4547 197.93 78.5605L194.993 73.3282C171.014 86.7857 145.287 111.329 123.874 143.14L128.851 146.49Z" fill="#47E49F" mask="url(#path-1-inside-1_10860_3392)"/>
<g filter="url(#filter1_i_10860_3392)">
<ellipse cx="140.932" cy="154.622" rx="131.715" ry="81.2241" transform="rotate(-56.0541 140.932 154.622)" fill="#0F4E32"/>
</g>
<path d="M210.294 51.5782C225.941 62.1105 234.149 82.6121 233.091 109.132C232.038 135.513 221.752 166.582 202.09 195.791C182.429 225 157.516 246.223 133.471 257.127C109.299 268.088 87.2154 268.199 71.5688 257.667C55.9221 247.134 47.7136 226.633 48.7719 200.113C49.8246 173.732 60.1111 142.663 79.7725 113.454C99.434 84.2455 124.347 63.0223 148.392 52.1185C172.564 41.1569 194.648 41.0459 210.294 51.5782Z" stroke="#47E49F" stroke-width="15"/>
<g clip-path="url(#clip0_10860_3392)">
<path d="M169.15 168.763L146.565 179.915L145.783 187.261L130.538 216.616L129.887 181.423L169.15 168.763Z" fill="#47E49F"/>
<path d="M128.576 110.642L140.127 93.4827L150.44 94.8018L150.145 139.785L212.442 108.421L185.262 148.799L129.678 170.19L128.576 110.642Z" fill="#47E49F"/>
<path d="M119.192 174.224L86.341 186.865L98.0616 173.69L109.782 160.515L115.788 157.43L116.144 133.083L119.192 174.224Z" fill="#47E49F"/>
<path d="M80.5433 197.332L119.964 184.622L123.024 225.927L114.288 193.054L80.5433 197.332Z" fill="#47E49F"/>
</g>
<line x1="135.513" y1="258.988" x2="164.651" y2="278.601" stroke="#47E49F" stroke-width="3"/>
<line x1="209.852" y1="178.036" x2="238.989" y2="197.65" stroke="#47E49F" stroke-width="3"/>
<line x1="143.932" y1="252.379" x2="173.07" y2="271.992" stroke="#47E49F" stroke-width="8"/>
</g>
<defs>
<filter id="filter0_d_10860_3392" x="37.1818" y="36.2856" width="234.392" height="265.813" filterUnits="userSpaceOnUse" color-interpolation-filters="sRGB">
<feFlood flood-opacity="0" result="BackgroundImageFix"/>
<feColorMatrix in="SourceAlpha" type="matrix" values="0 0 0 0 0 0 0 0 0 0 0 0 0 0 0 0 0 0 127 0" result="hardAlpha"/>
<feOffset dy="4"/>
<feGaussianBlur stdDeviation="2"/>
<feComposite in2="hardAlpha" operator="out"/>
<feColorMatrix type="matrix" values="0 0 0 0 0 0 0 0 0 0 0 0 0 0 0 0 0 0 0.25 0"/>
<feBlend mode="normal" in2="BackgroundImageFix" result="effect1_dropShadow_10860_3392"/>
<feBlend mode="normal" in="SourceGraphic" in2="effect1_dropShadow_10860_3392" result="shape"/>
</filter>
<filter id="filter1_i_10860_3392" x="41.1818" y="36.2856" width="201.467" height="239.296" filterUnits="userSpaceOnUse" color-interpolation-filters="sRGB">
<feFlood flood-opacity="0" result="BackgroundImageFix"/>
<feBlend mode="normal" in="SourceGraphic" in2="BackgroundImageFix" result="shape"/>
<feColorMatrix in="SourceAlpha" type="matrix" values="0 0 0 0 0 0 0 0 0 0 0 0 0 0 0 0 0 0 127 0" result="hardAlpha"/>
<feOffset dx="1.96721" dy="12.459"/>
<feGaussianBlur stdDeviation="1.31148"/>
<feComposite in2="hardAlpha" operator="arithmetic" k2="-1" k3="1"/>
<feColorMatrix type="matrix" values="0 0 0 0 0 0 0 0 0 0 0 0 0 0 0 0 0 0 1 0"/>
<feBlend mode="normal" in2="shape" result="effect1_innerShadow_10860_3392"/>
</filter>
<clipPath id="clip0_10860_3392">
<rect width="130.617" height="68.3314" fill="white" transform="matrix(-0.558409 0.829565 0.829565 0.558409 146.379 84.1943)"/>
</clipPath>
</defs>
</svg>
