<svg width="121" height="121" viewBox="0 0 121 121" fill="none" xmlns="http://www.w3.org/2000/svg">
<mask id="path-1-inside-1_10860_3341" fill="white">
<path fill-rule="evenodd" clip-rule="evenodd" d="M123.613 73.2032L134.026 77.9984L126.337 94.6927L126.282 94.6672C118.358 108.388 88.0008 108.258 57.2378 94.0904C26.4747 79.9231 6.64241 56.9395 11.9174 41.9988L11.8626 41.9736L12.3747 40.8617C12.3868 40.835 12.399 40.8082 12.4113 40.7816C12.4236 40.7549 12.436 40.7282 12.4484 40.7016L19.5508 25.2794L29.9628 30.0744C43.5105 27.9213 62.7047 31.2783 82.0597 40.1918C101.415 49.1053 116.443 61.5087 123.613 73.2032Z"/>
</mask>
<path fill-rule="evenodd" clip-rule="evenodd" d="M123.613 73.2032L134.026 77.9984L126.337 94.6927L126.282 94.6672C118.358 108.388 88.0008 108.258 57.2378 94.0904C26.4747 79.9231 6.64241 56.9395 11.9174 41.9988L11.8626 41.9736L12.3747 40.8617C12.3868 40.835 12.399 40.8082 12.4113 40.7816C12.4236 40.7549 12.436 40.7282 12.4484 40.7016L19.5508 25.2794L29.9628 30.0744C43.5105 27.9213 62.7047 31.2783 82.0597 40.1918C101.415 49.1053 116.443 61.5087 123.613 73.2032Z" fill="#0F4E32"/>
<path d="M123.613 73.2032L121.056 74.7714L121.531 75.5474L122.358 75.9281L123.613 73.2032ZM134.026 77.9984L136.751 79.2533L138.005 76.5284L135.281 75.2735L134.026 77.9984ZM126.337 94.6927L125.083 97.4176L127.807 98.6725L129.062 95.9476L126.337 94.6927ZM126.282 94.6672L127.537 91.9423L125.052 90.7981L123.684 93.1668L126.282 94.6672ZM11.9174 41.9988L14.7462 42.9976L15.6569 40.4182L13.1723 39.2739L11.9174 41.9988ZM11.8626 41.9736L9.13771 40.7187L7.8828 43.4436L10.6077 44.6986L11.8626 41.9736ZM12.3747 40.8617L15.0996 42.1166L15.1035 42.1082L15.1073 42.0998L12.3747 40.8617ZM12.4484 40.7016L15.1656 41.9733L15.1695 41.9649L15.1734 41.9565L12.4484 40.7016ZM19.5508 25.2794L20.8057 22.5545L18.0808 21.2996L16.8259 24.0245L19.5508 25.2794ZM29.9628 30.0744L28.7079 32.7993L29.5347 33.1801L30.4336 33.0372L29.9628 30.0744ZM122.358 75.9281L132.771 80.7234L135.281 75.2735L124.868 70.4783L122.358 75.9281ZM131.301 76.7435L123.613 93.4378L129.062 95.9476L136.751 79.2533L131.301 76.7435ZM127.592 91.9678L127.537 91.9423L125.027 97.3922L125.083 97.4176L127.592 91.9678ZM123.684 93.1668C120.572 98.5558 112.503 101.923 100.346 101.837C88.4294 101.752 73.5701 98.309 58.4927 91.3654L55.9829 96.8153C71.6685 104.039 87.3692 107.745 100.303 107.837C112.997 107.927 124.068 104.499 128.88 96.1676L123.684 93.1668ZM58.4927 91.3654C43.4153 84.4218 31.1397 75.3685 23.3291 66.3683C15.3609 57.1866 12.6744 48.8658 14.7462 42.9976L9.0885 41.0001C5.88538 50.0725 10.4776 60.7139 18.7976 70.3009C27.2751 80.0695 40.2973 89.5916 55.9829 96.8153L58.4927 91.3654ZM13.1723 39.2739L13.1175 39.2487L10.6077 44.6986L10.6625 44.7238L13.1723 39.2739ZM14.5876 43.2285L15.0996 42.1166L9.64978 39.6068L9.13771 40.7187L14.5876 43.2285ZM15.1073 42.0998C15.1169 42.0786 15.1265 42.0575 15.1362 42.0365L9.6864 39.5266C9.67152 39.5589 9.65675 39.5913 9.64209 39.6237L15.1073 42.0998ZM15.1362 42.0365C15.146 42.0154 15.1557 41.9943 15.1656 41.9733L9.73131 39.4299C9.71624 39.4621 9.70127 39.4943 9.6864 39.5266L15.1362 42.0365ZM15.1734 41.9565L22.2758 26.5343L16.8259 24.0245L9.72351 39.4467L15.1734 41.9565ZM18.2959 28.0043L28.7079 32.7993L31.2177 27.3495L20.8057 22.5545L18.2959 28.0043ZM30.4336 33.0372C43.2066 31.0073 61.7843 34.1572 80.8048 42.9167L83.3146 37.4669C63.6252 28.3993 43.8145 24.8353 29.4919 27.1116L30.4336 33.0372ZM80.8048 42.9167C99.8252 51.6762 114.295 63.7457 121.056 74.7714L126.171 71.6351C118.59 59.2717 103.004 46.5344 83.3146 37.4669L80.8048 42.9167Z" fill="#47E49F" mask="url(#path-1-inside-1_10860_3341)"/>
<path d="M129.624 77.9954C127.225 83.2043 119.922 86.9006 107.683 87.0042C95.7893 87.1049 80.6748 83.7141 65.2817 76.6251C49.8886 69.5361 37.4868 60.2549 29.8321 51.1517C21.9548 41.7837 20.0164 33.8316 22.4153 28.6227C24.8141 23.4138 32.1169 19.7175 44.3562 19.6139C56.2496 19.5132 71.3641 22.904 86.7572 29.993C102.15 37.082 114.552 46.3632 122.207 55.4664C130.084 64.8344 132.022 72.7865 129.624 77.9954Z" fill="#0F4E32" stroke="#47E49F" stroke-width="8"/>
<g clip-path="url(#clip0_10860_3341)">
<path d="M72.9862 64.5008L65.3966 55.9755L62.031 55.8142L47.1772 50.4799L62.7913 49.55L72.9862 64.5008Z" fill="#47E49F"/>
<path d="M94.1949 47.68L103.183 51.8195L103.791 55.8361L83.7021 56.5881L104.905 80.0925L83.7539 70.3516L67.7752 49.2532L94.1949 47.68Z" fill="#47E49F"/>
<path d="M64.7612 45.2724L55.318 32.8029L62.5501 37.085L69.7822 41.367L71.8537 43.6318L82.7494 43.3008L64.7612 45.2724Z" fill="#47E49F"/>
<path d="M49.9797 30.7609L60.2151 45.7717L42.1552 47.7512L55.7977 43.7374L49.9797 30.7609Z" fill="#47E49F"/>
</g>
<line x1="29.5562" y1="53.5911" x2="22.527" y2="68.8544" stroke="#47E49F" stroke-width="3"/>
<line x1="73.921" y1="81.5391" x2="66.8918" y2="96.8024" stroke="#47E49F" stroke-width="3"/>
<line x1="104.699" y1="88.7752" x2="97.6694" y2="104.038" stroke="#47E49F" stroke-width="3"/>
<line x1="110.825" y1="89.2837" x2="103.795" y2="104.547" stroke="#47E49F" stroke-width="3"/>
<line x1="34.5069" y1="57.6053" x2="27.4777" y2="72.8686" stroke="#47E49F" stroke-width="8"/>
<defs>
<clipPath id="clip0_10860_3341">
<rect width="62.4903" height="24.9603" fill="white" transform="matrix(-0.908308 -0.418303 -0.418303 0.908308 108.049 54.0601)"/>
</clipPath>
</defs>
</svg>
