<svg width="960" height="617" viewBox="0 0 960 617" fill="none" xmlns="http://www.w3.org/2000/svg">
<g filter="url(#filter0_b_11396_4916)">
<mask id="path-1-inside-1_11396_4916" fill="white">
<path fill-rule="evenodd" clip-rule="evenodd" d="M192.104 25.076C185.821 10.3255 171.337 0.751953 155.304 0.751953H40C17.9086 0.751953 0 18.6606 0 40.752V576.752C0 598.843 17.9086 616.752 40 616.752H920C942.091 616.752 960 598.843 960 576.752V90.6545C960 68.5631 942.091 50.6545 920 50.6545H229.439C213.406 50.6545 198.922 41.081 192.639 26.3304L192.104 25.076Z"/>
</mask>
<path fill-rule="evenodd" clip-rule="evenodd" d="M192.104 25.076C185.821 10.3255 171.337 0.751953 155.304 0.751953H40C17.9086 0.751953 0 18.6606 0 40.752V576.752C0 598.843 17.9086 616.752 40 616.752H920C942.091 616.752 960 598.843 960 576.752V90.6545C960 68.5631 942.091 50.6545 920 50.6545H229.439C213.406 50.6545 198.922 41.081 192.639 26.3304L192.104 25.076Z" fill="#041610" fill-opacity="0.3"/>
<path d="M192.104 25.076L189.344 26.2517L192.104 25.076ZM40 3.75195H155.304V-2.24805H40V3.75195ZM3 576.752V40.752H-3V576.752H3ZM920 613.752H40V619.752H920V613.752ZM957 90.6545V576.752H963V90.6545H957ZM920 47.6545H229.439V53.6545H920V47.6545ZM195.399 25.1547L194.864 23.9003L189.344 26.2517L189.879 27.5061L195.399 25.1547ZM229.439 47.6545C214.608 47.6545 201.211 38.799 195.399 25.1547L189.879 27.5061C196.633 43.363 212.203 53.6545 229.439 53.6545V47.6545ZM963 90.6545C963 66.9062 943.748 47.6545 920 47.6545V53.6545C940.435 53.6545 957 70.2199 957 90.6545H963ZM920 619.752C943.748 619.752 963 600.5 963 576.752H957C957 597.187 940.435 613.752 920 613.752V619.752ZM-3 576.752C-3 600.5 16.2518 619.752 40 619.752V613.752C19.5655 613.752 3 597.186 3 576.752H-3ZM155.304 3.75195C170.134 3.75195 183.532 12.6075 189.344 26.2517L194.864 23.9003C188.11 8.04347 172.539 -2.24805 155.304 -2.24805V3.75195ZM40 -2.24805C16.2518 -2.24805 -3 17.0037 -3 40.752H3C3 20.3174 19.5655 3.75195 40 3.75195V-2.24805Z" fill="#3EE19E" mask="url(#path-1-inside-1_11396_4916)"/>
</g>
<defs>
<filter id="filter0_b_11396_4916" x="-17" y="-16.248" width="994" height="650" filterUnits="userSpaceOnUse" color-interpolation-filters="sRGB">
<feFlood flood-opacity="0" result="BackgroundImageFix"/>
<feGaussianBlur in="BackgroundImageFix" stdDeviation="8.5"/>
<feComposite in2="SourceAlpha" operator="in" result="effect1_backgroundBlur_11396_4916"/>
<feBlend mode="normal" in="SourceGraphic" in2="effect1_backgroundBlur_11396_4916" result="shape"/>
</filter>
</defs>
</svg>
