<svg width="72" height="72" viewBox="0 0 72 72" fill="none" xmlns="http://www.w3.org/2000/svg">
<circle cx="35.6" cy="36.2523" r="34" fill="#0F4E32" stroke="#47E49F" stroke-width="3.2"/>
<g clip-path="url(#clip0_11396_4960)">
<path d="M35.1955 11.8538L34.8842 12.9112V43.5916L35.1955 43.9021L49.4367 35.484L35.1955 11.8538Z" fill="#47E49F"/>
<path d="M35.1952 11.8538L20.9536 35.484L35.1952 43.9021V29.0107V11.8538Z" fill="#47E49F"/>
<path d="M35.1955 46.5988L35.0201 46.8127V57.7416L35.1955 58.2537L49.4455 38.1851L35.1955 46.5988Z" fill="#47E49F"/>
<path d="M35.1956 58.2537V46.5988L20.9541 38.1851L35.1956 58.2537Z" fill="#47E49F"/>
<path d="M34.8311 43.6849L49.0723 35.2668L34.8311 28.7935V43.6849Z" fill="#47E49F"/>
<path d="M20.954 35.4841L35.1955 43.9022V29.0107L20.954 35.4841Z" fill="#47E49F"/>
</g>
<defs>
<clipPath id="clip0_11396_4960">
<rect width="46.4" height="46.4" fill="white" transform="translate(12 11.8523)"/>
</clipPath>
</defs>
</svg>
