<svg width="412" height="290" viewBox="0 0 412 290" fill="none" xmlns="http://www.w3.org/2000/svg">
<g filter="url(#filter0_b_9716_1551)">
<mask id="path-1-outside-1_9716_1551" maskUnits="userSpaceOnUse" x="0" y="0" width="412" height="290" fill="black">
<rect fill="white" width="412" height="290"/>
<path fill-rule="evenodd" clip-rule="evenodd" d="M4 108C4 85.9086 21.9086 68 44 68H236.298C253.934 68 269.489 56.4497 274.589 39.5671L276.744 32.4329C281.844 15.5503 297.399 4 315.035 4H368C390.091 4 408 21.9086 408 44V246C408 268.091 390.091 286 368 286H44C21.9086 286 4 268.091 4 246V108Z"/>
</mask>
<path fill-rule="evenodd" clip-rule="evenodd" d="M4 108C4 85.9086 21.9086 68 44 68H236.298C253.934 68 269.489 56.4497 274.589 39.5671L276.744 32.4329C281.844 15.5503 297.399 4 315.035 4H368C390.091 4 408 21.9086 408 44V246C408 268.091 390.091 286 368 286H44C21.9086 286 4 268.091 4 246V108Z" fill="#041610" fill-opacity="0.3"/>
<path d="M276.744 32.4329L273.355 31.4091L276.744 32.4329ZM274.589 39.5671L277.978 40.5909L274.589 39.5671ZM44 71.5405H236.298V64.4595H44V71.5405ZM277.978 40.5909L280.133 33.4567L273.355 31.4091L271.199 38.5433L277.978 40.5909ZM315.035 7.54045H368V0.459547H315.035V7.54045ZM404.46 44V246H411.54V44H404.46ZM368 282.46H44V289.54H368V282.46ZM7.54045 246V108H0.459547V246H7.54045ZM44 282.46C23.8639 282.46 7.54045 266.136 7.54045 246H0.459547C0.459547 270.047 19.9533 289.54 44 289.54V282.46ZM404.46 246C404.46 266.136 388.136 282.46 368 282.46V289.54C392.047 289.54 411.54 270.047 411.54 246H404.46ZM368 7.54045C388.136 7.54045 404.46 23.8639 404.46 44H411.54C411.54 19.9533 392.047 0.459547 368 0.459547V7.54045ZM280.133 33.4567C284.781 18.0684 298.96 7.54045 315.035 7.54045V0.459547C295.838 0.459547 278.906 13.0322 273.355 31.4091L280.133 33.4567ZM236.298 71.5405C255.495 71.5405 272.426 58.9678 277.978 40.5909L271.199 38.5433C266.551 53.9315 252.373 64.4595 236.298 64.4595V71.5405ZM44 64.4595C19.9533 64.4595 0.459547 83.9533 0.459547 108H7.54045C7.54045 87.8639 23.8639 71.5405 44 71.5405V64.4595Z" fill="#3EE19E" mask="url(#path-1-outside-1_9716_1551)"/>
</g>
<defs>
<filter id="filter0_b_9716_1551" x="-14.5405" y="-14.5404" width="441.081" height="319.081" filterUnits="userSpaceOnUse" color-interpolation-filters="sRGB">
<feFlood flood-opacity="0" result="BackgroundImageFix"/>
<feGaussianBlur in="BackgroundImageFix" stdDeviation="7.5"/>
<feComposite in2="SourceAlpha" operator="in" result="effect1_backgroundBlur_9716_1551"/>
<feBlend mode="normal" in="SourceGraphic" in2="effect1_backgroundBlur_9716_1551" result="shape"/>
</filter>
</defs>
</svg>
