<svg width="228" height="224" viewBox="0 0 228 224" fill="none" xmlns="http://www.w3.org/2000/svg">
<path fill-rule="evenodd" clip-rule="evenodd" d="M74.9199 82.4471C50.7423 75.6442 33.5336 73.935 31.4636 79.065C28.2637 86.9952 62.4516 108.266 107.825 126.574C153.198 144.883 192.574 153.296 195.774 145.366C197.878 140.15 183.811 129.164 161.026 117.046L161.892 121.071C166.378 123.507 170.485 125.885 174.151 128.166C180.985 132.417 186.153 136.251 189.377 139.411C191 141.002 191.991 142.288 192.491 143.248C192.754 143.751 192.823 144.045 192.839 144.181C192.732 144.269 192.479 144.432 191.94 144.613C190.914 144.956 189.308 145.195 187.036 145.214C182.521 145.251 176.14 144.424 168.269 142.743C152.579 139.39 131.57 132.774 108.998 123.666C86.4263 114.558 66.7088 104.741 53.0859 96.2652C46.2525 92.0136 41.0839 88.1801 37.8596 85.0197C36.2368 83.4291 35.2462 82.1429 34.746 81.1831C34.4834 80.6792 34.4146 80.3861 34.3983 80.2492C34.505 80.162 34.758 79.9987 35.2968 79.8181C36.323 79.4742 37.9289 79.2358 40.2011 79.2168C44.7159 79.1793 51.0975 80.0064 58.9679 81.688C62.9863 82.5466 67.3536 83.6192 72.0067 84.893L74.9199 82.4471ZM192.907 144.115C192.907 144.115 192.905 144.119 192.899 144.125C192.904 144.118 192.907 144.115 192.907 144.115ZM34.3955 80.1541C34.3958 80.1542 34.3956 80.1587 34.394 80.1671C34.3944 80.1582 34.3952 80.154 34.3955 80.1541ZM34.3303 80.3157C34.33 80.3156 34.3324 80.312 34.3382 80.3053C34.3335 80.3125 34.3306 80.3158 34.3303 80.3157ZM192.843 144.264C192.843 144.272 192.842 144.277 192.842 144.277C192.841 144.276 192.842 144.272 192.843 144.264Z" fill="#3EE19E"/>
<path d="M145.559 33.7992L63.0498 90.9651M145.559 33.7992L70.7402 94.0682M145.559 33.7992L78.6568 97.2626M145.559 33.7992L86.5734 100.457M145.559 33.7992L95.1686 103.925M145.559 33.7992L103.764 107.394" stroke="#3EE19E" stroke-width="1.46479" stroke-linecap="round"/>
<path d="M145.49 33.9826L165.218 132.402M145.49 33.9826L157.528 129.299M145.49 33.9826L149.611 126.105M145.49 33.9826L141.695 122.91M145.49 33.9826L133.099 119.442M145.49 33.9826L124.504 115.974" stroke="#3EE19E" stroke-width="1.46479" stroke-linecap="round"/>
<path d="M145.668 33.2092L114.058 111.547" stroke="#3EE19E" stroke-width="1.46479" stroke-linecap="round"/>
<path d="M82.6313 189.748L62.9028 91.3285M82.6313 189.748L70.5932 94.4316M82.6313 189.748L78.5098 97.626M82.6313 189.748L86.4264 100.82M82.6313 189.748L95.0216 104.289M82.6313 189.748L103.617 107.757" stroke="#3EE19E" stroke-width="1.46479" stroke-linecap="round"/>
<path d="M82.709 189.568L165.218 132.402M82.709 189.568L157.527 129.299M82.709 189.568L149.611 126.105M82.709 189.568L141.694 122.91M82.709 189.568L133.099 119.442M82.709 189.568L124.504 115.974" stroke="#3EE19E" stroke-width="1.46479" stroke-linecap="round"/>
<path d="M82.3005 190.249L113.911 111.911" stroke="#3EE19E" stroke-width="1.46479" stroke-linecap="round"/>
<path d="M62.8228 90.8737L163.477 131.488" stroke="#3EE19E" stroke-width="1.46479" stroke-linecap="round"/>
</svg>
