<svg width="33" height="33" viewBox="0 0 33 33" fill="none" xmlns="http://www.w3.org/2000/svg">
<circle cx="16.5" cy="16.4" r="16.4" fill="#3EE19E"/>
<path d="M10.142 21.1121C9.99478 20.8655 9.85168 20.6164 9.71271 20.3651C8.75357 18.5738 8.47624 16.4955 8.93212 14.5154C9.388 12.5353 10.5462 10.7875 12.1921 9.59594C13.8379 8.40438 15.8599 7.8498 17.8834 8.03496C19.9069 8.22013 21.7947 9.13248 23.197 10.603C24.5992 12.0735 25.421 14.0024 25.5099 16.0324C25.5988 18.0624 24.9489 20.0558 23.6806 21.6433C22.4123 23.2307 20.6115 24.3047 18.612 24.6661C16.6124 25.0274 14.5497 24.6518 12.8059 23.6087L12.4114 23.3783L10.3555 23.9391C10.2484 23.9682 10.1356 23.9684 10.0283 23.9399C9.9211 23.9113 9.8233 23.855 9.74483 23.7765C9.66636 23.698 9.61 23.6002 9.58145 23.493C9.5529 23.3858 9.55318 23.2729 9.58225 23.1658L10.142 21.1121ZM11.4276 21.1868L11.0878 22.4335L12.3346 22.0937C12.4151 22.0718 12.4991 22.0661 12.5818 22.0769C12.6645 22.0878 12.7443 22.1149 12.8164 22.1568C13.03 22.2799 13.2425 22.4041 13.454 22.5293C14.9359 23.4159 16.689 23.7353 18.3884 23.4283C20.0878 23.1214 21.6184 22.2089 22.6966 20.8599C23.7747 19.5109 24.3274 17.8168 24.2522 16.0915C24.177 14.3663 23.479 12.7267 22.2876 11.4766C21.0961 10.2266 19.492 9.4507 17.7723 9.29279C16.0526 9.13487 14.334 9.60561 12.9348 10.6178C11.5356 11.63 10.5507 13.115 10.1625 14.7977C9.77438 16.4804 10.0093 18.2468 10.8237 19.7696C10.8963 19.9064 11.0773 20.2199 11.3614 20.6997C11.4487 20.847 11.4718 21.0227 11.4276 21.1868ZM14.302 19.7938C14.2351 19.742 14.1792 19.6773 14.1379 19.6035C14.0965 19.5297 14.0704 19.4484 14.0611 19.3643C14.0519 19.2802 14.0596 19.1951 14.084 19.114C14.1083 19.033 14.1487 18.9577 14.2028 18.8926C14.2568 18.8275 14.3234 18.774 14.3986 18.7352C14.4738 18.6964 14.556 18.6732 14.6404 18.6669C14.7248 18.6605 14.8096 18.6713 14.8897 18.6984C14.9698 18.7255 15.0437 18.7685 15.1068 18.8248C15.6718 19.2954 16.3842 19.5524 17.1195 19.5508C17.8665 19.5508 18.5704 19.292 19.1311 18.8248C19.1946 18.7707 19.2682 18.7298 19.3476 18.7043C19.427 18.6789 19.5107 18.6694 19.5938 18.6766C19.6769 18.6837 19.7577 18.7073 19.8317 18.7459C19.9056 18.7845 19.9711 18.8374 20.0244 18.9015C20.0778 18.9656 20.1178 19.0397 20.1423 19.1194C20.1668 19.1991 20.1752 19.2829 20.1671 19.3659C20.159 19.4489 20.1345 19.5295 20.095 19.6029C20.0555 19.6764 20.0018 19.7413 19.937 19.7938C19.1459 20.4524 18.1485 20.8122 17.1195 20.8112C16.0902 20.8126 15.093 20.4525 14.302 19.7938Z" fill="#134631"/>
</svg>
