<svg width="33" height="33" viewBox="0 0 33 33" fill="none" xmlns="http://www.w3.org/2000/svg">
<circle cx="16.5" cy="16.4" r="16.4" fill="#3EE19E"/>
<path d="M15.7853 7.79532L13.7242 11.9718L9.11484 12.6419C8.89376 12.6741 8.68611 12.7675 8.51533 12.9116C8.34456 13.0556 8.21748 13.2446 8.14845 13.4571C8.07942 13.6696 8.0712 13.8971 8.1247 14.114C8.17821 14.331 8.29131 14.5286 8.45123 14.6846L11.7861 17.9356L10.9987 22.5266C10.9543 22.7861 10.9967 23.053 11.1193 23.286L11.1776 23.3858C11.3409 23.6349 11.5911 23.8142 11.8794 23.8888C12.1678 23.9634 12.4736 23.9278 12.7372 23.7891L16.8594 21.6218L20.9816 23.7891C21.1795 23.8932 21.4025 23.9399 21.6255 23.9239C21.8484 23.9078 22.0625 23.8297 22.2434 23.6983C22.4243 23.567 22.5648 23.3876 22.649 23.1805C22.7333 22.9734 22.7579 22.7469 22.7201 22.5266L21.9327 17.9356L25.2676 14.6854C25.4279 14.5294 25.5415 14.3317 25.5952 14.1145C25.649 13.8974 25.6409 13.6695 25.5718 13.4567C25.5028 13.244 25.3755 13.0548 25.2044 12.9106C25.0334 12.7664 24.8253 12.6731 24.6039 12.6411L19.9946 11.9718L17.9343 7.79532C17.8354 7.59472 17.6824 7.4258 17.4925 7.30768C17.3026 7.18956 17.0834 7.12695 16.8598 7.12695C16.6362 7.12695 16.417 7.18956 16.2271 7.30768C16.0372 7.4258 15.8842 7.59472 15.7853 7.79532ZM16.8594 9.22796L18.5627 12.6786L18.625 12.7936C18.747 12.9967 18.9125 13.1701 19.1098 13.3013C19.307 13.4326 19.5309 13.5183 19.7654 13.5522L23.573 14.1048L20.8179 16.792L20.7277 16.8871C20.5723 17.0657 20.4586 17.2767 20.3948 17.5047C20.331 17.7328 20.3186 17.9721 20.3587 18.2055L21.0088 21.9979L17.2315 20.0127L17.1421 19.9727C17.0363 19.9326 16.9233 19.9155 16.8104 19.9224C16.6975 19.9292 16.5874 19.96 16.4873 20.0127L12.71 21.9971L13.3608 18.2047L13.3776 18.0753C13.3985 17.8394 13.3666 17.6018 13.2843 17.3797C13.2019 17.1576 13.0713 16.9566 12.9017 16.7912L10.1458 14.104L13.955 13.5514C14.2111 13.5141 14.4543 13.4151 14.6637 13.2629C14.8731 13.1107 15.0423 12.9099 15.1568 12.6778L16.8594 9.22796Z" fill="#134631"/>
</svg>
