<svg width="33" height="33" viewBox="0 0 33 33" fill="none" xmlns="http://www.w3.org/2000/svg">
<circle cx="16.5" cy="16.4" r="16.4" fill="#3EE19E"/>
<g clip-path="url(#clip0_9716_1518)">
<path d="M9.4933 14.4384C9.49404 14.3463 9.4766 14.2549 9.44197 14.1696C9.40734 14.0843 9.35621 14.0066 9.29151 13.941C9.22681 13.8755 9.14981 13.8234 9.06492 13.7876C8.98003 13.7519 8.88893 13.7333 8.79683 13.7328C8.41255 13.7328 8.10106 14.0513 8.10106 14.4384V23.293C8.10036 23.6843 8.41045 23.9993 8.80033 23.9993C9.18671 23.9993 9.5003 23.6808 9.4996 23.2937L9.4926 14.4391L9.4933 14.4384ZM12.3142 22.5993H21.6497C21.7631 22.5993 21.9472 22.4502 21.9696 22.3404L23.4472 15.258C23.5802 14.6197 23.2449 14.2081 22.587 14.2095H22.2566C21.9402 14.2109 21.6196 14.2109 21.3186 14.2109C20.8125 14.2109 20.4296 14.2088 20.2127 14.206L18.1743 14.1752L18.9345 12.2839C19.1704 11.6966 19.3034 11.0834 19.3034 10.4779C19.3034 9.1585 18.7476 8.59922 18.154 8.60622C17.6998 8.61182 17.4331 8.86731 17.4366 9.56868C17.3582 12.3756 15.2723 14.8773 12.3142 15.1209V22.5993ZM20.2337 12.806L21.7211 12.8109C22.1936 12.8109 22.5828 12.8095 22.5828 12.8095C24.1325 12.8074 25.1327 14.0359 24.8178 15.5443L23.3408 22.6266C23.1812 23.3847 22.426 23.9993 21.649 23.9993H11.6191C11.4323 23.9987 11.2534 23.9243 11.1213 23.7922C10.9892 23.6602 10.9148 23.4812 10.9142 23.2944V14.4447C10.9142 14.0555 11.2278 13.7398 11.6156 13.7398H11.8396C14.4792 13.7398 15.9834 11.4852 16.0373 9.52949C16.0275 7.92935 17.0978 7.21818 18.1372 7.20558C19.1774 7.19298 20.7033 8.03855 20.7033 10.4772C20.7033 10.7992 20.6753 11.1107 20.6263 11.4082L20.2337 12.8053V12.806Z" fill="#134631"/>
</g>
<defs>
<clipPath id="clip0_9716_1518">
<rect width="16.8" height="16.8" fill="white" transform="translate(8.10001 7.19995)"/>
</clipPath>
</defs>
</svg>
